<?xml version="1.0" standalone="no"?>
<!DOCTYPE svg PUBLIC "-//W3C//DTD SVG 20010904//EN"
 "http://www.w3.org/TR/2001/REC-SVG-20010904/DTD/svg10.dtd">
<svg version="1.0" xmlns="http://www.w3.org/2000/svg"
 width="8228.000000pt" height="4811.000000pt" viewBox="0 0 8228.000000 4811.000000"
 preserveAspectRatio="xMidYMid meet">

<g transform="translate(0.000000,4811.000000) scale(0.100000,-0.100000)"
fill="#000000" stroke="none">
<path d="M68470 46134 c-1993 -52 -3994 -344 -6216 -909 -2025 -514 -4186
-1261 -6213 -2147 -491 -214 -1155 -523 -1491 -693 -69 -35 -269 -118 -445
-184 -3095 -1159 -6352 -2716 -9797 -4682 -8566 -4890 -18219 -12314 -28298
-21763 -4247 -3982 -8634 -8405 -12301 -12402 -550 -600 -1305 -1436 -1368
-1517 -13 -16 256 -17 5501 -17 l5514 0 180 222 c2833 3508 5976 7090 9084
10353 1764 1852 3790 3884 5600 5616 6593 6307 13672 12034 20575 16644 2262
1511 4551 2924 6180 3815 154 84 408 233 565 330 1923 1193 3680 2138 5400
2902 2816 1252 5448 1974 7845 2152 438 33 657 40 1175 40 543 1 753 -7 1200
-45 2115 -177 4003 -820 5680 -1934 1205 -801 2254 -1807 3181 -3050 921
-1236 1697 -2701 2165 -4090 46 -137 84 -244 84 -238 0 43 -178 850 -264 1198
-610 2461 -1616 4567 -2948 6167 -400 480 -903 990 -1349 1368 -2003 1695
-4532 2637 -7599 2830 -434 27 -1250 44 -1640 34z"/>
<path d="M0 22743 l0 -21017 45 44 c42 41 44 45 25 50 -19 4 13 46 236 305
2233 2599 5566 6219 8599 9340 176 182 364 376 418 432 l97 101 0 4601 c0
2531 2 4601 5 4601 3 0 1236 -844 2740 -1876 1505 -1031 2739 -1874 2744
-1872 5 2 200 185 432 409 2071 1982 4028 3789 6059 5594 775 689 1780 1568
2228 1950 77 66 140 123 139 127 -1 4 -119 88 -262 188 -171 120 -4205 3215
-11876 9111 -6390 4911 -11620 8929 -11623 8929 -3 0 -6 -9458 -6 -21017z"/>
<path d="M29250 36620 c0 -3602 3 -6550 8 -6550 4 1 81 60 172 132 1422 1128
3226 2494 4750 3598 5450 3948 10568 7013 15306 9166 210 95 396 179 415 188
30 13 -1162 14 -10308 15 l-10343 1 0 -6550z"/>
<path d="M68680 42904 c-3844 -424 -8168 -2118 -13005 -5095 -93 -58 -219
-131 -280 -164 -395 -210 -1040 -570 -1575 -880 -2398 -1390 -5109 -3134
-7825 -5034 l-380 -266 11670 -3 c6419 -1 11676 0 11683 3 9 3 12 1160 12
5735 l0 5730 -42 -1 c-24 -1 -140 -12 -258 -25z"/>
<path d="M40445 27644 c-4584 -3545 -9060 -7424 -13340 -11559 -1042 -1008
-2555 -2514 -3481 -3465 -718 -739 -671 -688 -653 -704 8 -8 3915 -2690 8684
-5960 l8670 -5946 14452 0 14453 0 0 5549 0 5549 -272 6 c-225 4 -27293 158
-27700 156 l-128 0 0 2645 0 2645 11593 2 11592 3 3 4993 2 4992 -11710 0
-11710 0 -2 721 -3 721 -450 -348z"/>
</g>
</svg>
